<svg xmlns="http://www.w3.org/2000/svg" viewBox="0 0 64 64" fill="none"><defs><filter id="moonGlow" x="-40%" y="-40%" width="180%" height="180%"><feGaussianBlur stdDeviation="1.35" result="blur"/><feMerge><feMergeNode in="blur"/><feMergeNode in="SourceGraphic"/></feMerge></filter></defs><g filter="url(#moonGlow)" stroke="#9FD8FF" stroke-width="2.5" stroke-linecap="round" stroke-linejoin="round"><path d="m14 50 9-24 25-15 5 5-15 25-24 9Z"/><path d="m23 26 15 15M17 47l10-4"/><path d="m12 12 2 5 5 2-5 2-2 5-2-5-5-2 5-2 2-5ZM49 43l2 4 4 2-4 2-2 4-2-4-4-2 4-2 2-4Z"/></g></svg>